<?xml version="1.0" encoding="UTF-8" standalone="no"?><!DOCTYPE svg PUBLIC "-//W3C//DTD SVG 1.1//EN" "http://www.w3.org/Graphics/SVG/1.1/DTD/svg11.dtd"><svg width="100%" height="100%" viewBox="0 0 1772 1772" version="1.1" xmlns="http://www.w3.org/2000/svg" xmlns:xlink="http://www.w3.org/1999/xlink" xml:space="preserve" xmlns:serif="http://www.serif.com/" style="fill-rule:evenodd;clip-rule:evenodd;stroke-linejoin:round;stroke-miterlimit:2;"><g><circle cx="577.381" cy="244.13" r="205.997" style="fill:#1a6d97;"/><circle cx="1234.65" cy="243.949" r="206.178" style="fill:#787878;"/><path d="M544.074,586.432c-122.379,-0.494 -239.925,48.418 -325.829,135.582c-66.433,67.157 -144.813,189.524 -144.813,390.633l-0,502.501c2.024,58.816 50.961,106.097 109.812,106.097c58.373,0 107.079,-46.518 109.761,-104.83c2.681,-58.312 -0,0 -0,-1.267l-0,-502.501c-0,-100.102 28.419,-181.017 82.181,-235.321c44.861,-45.341 106.193,-70.684 169.975,-70.235c114.764,0 230.614,79.104 230.614,255.776l0,561.151c0,60.277 49.601,109.877 109.877,109.877c60.277,-0 109.877,-49.6 109.877,-109.877l0,-561.151c-1.086,-313.158 -227.537,-476.435 -451.455,-476.435Z" style="fill:#1a6d97;fill-rule:nonzero;"/><path d="M1246.6,586.432c-122.384,-0.515 -239.937,48.4 -325.83,135.582c-66.433,67.157 -144.813,189.524 -144.813,390.633l0,511.009c0,60.277 49.601,109.877 109.877,109.877c60.277,-0 109.877,-49.6 109.877,-109.877l0,-511.009c0,-100.102 28.42,-181.017 82.001,-235.321c44.928,-45.351 106.319,-70.691 170.155,-70.235c114.764,0 230.615,79.104 230.615,255.776l-0,561.151c-0,60.277 49.6,109.877 109.877,109.877c60.277,-0 109.877,-49.6 109.877,-109.877l-0,-561.151c-1.267,-313.158 -227.9,-476.435 -451.636,-476.435Z" style="fill:#787878;fill-rule:nonzero;"/></g></svg>